<?xml version="1.0" encoding="UTF-8"?>
<svg xmlns="http://www.w3.org/2000/svg" xmlns:xlink="http://www.w3.org/1999/xlink" width="32px" height="32px" viewBox="0 0 32 32" version="1.1">
<g id="surface1">
<path style=" stroke:none;fill-rule:nonzero;fill:rgb(100%,100%,100%);fill-opacity:1;" d="M 62.507812 1.8125 C 62.078125 2.878906 58.988281 12.160156 55.679688 22.398438 L 49.707031 41.066406 L 197.972656 41.386719 C 280.855469 41.492188 346.773438 42.027344 347.304688 42.558594 C 347.839844 43.09375 342.292969 61.761719 334.398438 85.972656 C 326.71875 109.441406 318.933594 133.332031 317.121094 139.199219 C 315.199219 145.066406 313.066406 150.933594 312.214844 152.214844 L 310.71875 154.667969 L 185.921875 154.667969 C 91.625 154.667969 61.121094 154.347656 61.121094 153.386719 C 61.121094 152.425781 86.398438 74.347656 88.535156 68.480469 C 88.960938 67.519531 83.839844 67.199219 65.066406 67.199219 L 41.171875 67.199219 L 36.90625 80.214844 C 34.558594 87.464844 25.601562 114.773438 16.960938 140.90625 C 8.425781 167.144531 1.066406 190.078125 0.746094 191.894531 L 0 195.199219 L 154.027344 194.988281 L 308.054688 194.667969 L 316.585938 191.785156 C 327.574219 188.054688 336.320312 182.71875 344.105469 175.144531 C 355.414062 164.054688 356.800781 161.066406 370.558594 119.039062 C 377.601562 97.921875 386.453125 70.933594 390.292969 59.199219 C 396.800781 39.574219 397.332031 37.332031 396.90625 30.828125 C 395.945312 18.132812 388.265625 8 375.894531 2.988281 L 369.921875 0.535156 L 216.535156 0.214844 C 70.71875 0 63.148438 0 62.507812 1.8125 Z M 62.507812 1.8125 "/>
</g>
</svg>
