<svg width="1360" height="377" viewBox="0 0 1360 377" fill="none" xmlns="http://www.w3.org/2000/svg">
<path d="M1224.77 242.442L1302.78 0.553925L1359.93 125.805L1224.77 242.442Z" fill="#6D28D9"/>
<path d="M1181.1 242.454L1259.45 1.36464L1315.81 126.974L1181.1 242.454Z" fill="white"/>
<path d="M21.456 357.333C38.808 357.333 51.264 345.813 51.264 328.245C51.264 314.637 41.976 304.701 28.584 304.701H11.376L3.024 357.333H21.456ZM27 312.909C36.216 312.909 41.832 319.101 41.832 328.245C41.832 341.205 33.768 349.053 22.032 349.053H13.176L18.936 312.909H27ZM86.9984 357.333L88.2944 349.053H65.1104L67.3424 334.797H88.0784L89.3024 326.877H68.6384L70.8704 312.981H93.9824L95.2784 304.701H63.3104L54.9584 357.333H86.9984ZM119.605 358.197C131.773 358.197 140.413 351.861 144.589 339.765H134.869C131.989 346.605 127.021 349.485 119.893 349.485C111.613 349.485 106.573 343.509 106.573 334.509C106.573 321.837 113.773 312.477 124.717 312.477C131.341 312.477 136.309 315.861 137.245 322.341H146.605C146.101 311.397 138.109 303.837 125.725 303.837C109.309 303.837 97.2133 316.797 97.2133 335.013C97.2133 348.621 105.565 358.197 119.605 358.197ZM181.305 357.333L182.601 349.053H159.417L161.649 334.797H182.385L183.609 326.877H162.945L165.177 312.981H188.289L189.585 304.701H157.617L149.265 357.333H181.305ZM199.368 357.333L205.272 319.677L223.632 357.333H232.416L240.768 304.701H231.912L226.008 342.357L207.648 304.701H198.864L190.512 357.333H199.368ZM245.738 312.909H260.858L253.802 357.333H262.586L269.642 312.909H284.69L285.986 304.701H247.034L245.738 312.909ZM292.83 357.333L295.926 337.533H307.158L313.422 357.333H322.566L315.654 335.733C323.358 332.709 327.822 326.661 327.822 319.317C327.822 310.389 321.558 304.701 311.694 304.701H292.326L283.974 357.333H292.83ZM299.886 312.693H310.326C315.51 312.693 318.606 315.357 318.606 320.037C318.606 326.013 314.502 329.685 307.878 329.685H297.222L299.886 312.693ZM335.03 357.333L341.222 345.021H360.59L362.822 357.333H371.822L361.526 304.701H352.382L325.382 357.333H335.03ZM353.822 319.821C354.47 318.453 355.118 316.869 355.478 315.933C355.478 316.941 355.766 318.741 355.982 319.821L359.222 337.461H344.966L353.822 319.821ZM394.783 304.701H385.999L377.647 357.333H408.175L409.471 349.053H387.799L394.783 304.701ZM432.093 304.701H423.309L414.957 357.333H423.813L432.093 304.701ZM468.168 357.333L469.464 349.053H443.328L474.864 312.693L476.088 304.701H439.944L438.72 312.981H463.56L432.384 348.981L431.088 357.333H468.168ZM507.483 357.333L508.779 349.053H485.595L487.827 334.797H508.563L509.787 326.877H489.123L491.355 312.981H514.467L515.763 304.701H483.795L475.443 357.333H507.483ZM535.122 357.333C552.474 357.333 564.93 345.813 564.93 328.245C564.93 314.637 555.642 304.701 542.25 304.701H525.042L516.69 357.333H535.122ZM540.666 312.909C549.882 312.909 555.498 319.101 555.498 328.245C555.498 341.205 547.434 349.053 535.698 349.053H526.842L532.602 312.909H540.666ZM609.919 339.117C621.799 339.117 629.863 331.269 629.863 319.893C629.863 310.677 623.671 304.701 614.167 304.701H595.231L586.879 357.333H595.735L598.615 339.117H609.919ZM611.935 312.693C617.479 312.693 620.719 315.717 620.719 320.685C620.719 327.309 616.471 331.125 609.343 331.125H599.839L602.791 312.693H611.935ZM632.732 357.333L638.924 345.021H658.292L660.524 357.333H669.524L659.228 304.701H650.084L623.084 357.333H632.732ZM651.524 319.821C652.172 318.453 652.82 316.869 653.18 315.933C653.18 316.941 653.468 318.741 653.684 319.821L656.924 337.461H642.668L651.524 319.821ZM684.714 336.525L681.402 357.333H690.258L693.57 336.525L715.962 304.701H705.81L692.418 324.141C691.554 325.437 690.834 326.661 690.186 327.957C689.898 326.517 689.466 325.293 689.034 324.141L681.762 304.701H672.402L684.714 336.525ZM722.002 357.333L725.098 338.037C725.962 332.565 726.754 326.949 726.754 323.205L734.602 357.333H742.882L761.458 323.133C760.738 325.869 759.73 330.765 758.578 338.037L755.554 357.333H764.194L772.546 304.701H763.402L740.002 346.893L729.994 304.701H721.714L713.362 357.333H722.002ZM807.109 357.333L808.405 349.053H785.221L787.453 334.797H808.189L809.413 326.877H788.749L790.981 312.981H814.093L815.389 304.701H783.421L775.069 357.333H807.109ZM825.172 357.333L831.076 319.677L849.436 357.333H858.22L866.572 304.701H857.716L851.812 342.357L833.452 304.701H824.668L816.316 357.333H825.172ZM871.542 312.909H886.662L879.606 357.333H888.39L895.446 312.909H910.494L911.79 304.701H872.838L871.542 312.909ZM913.633 320.325C913.633 326.949 917.665 331.701 925.297 334.077L933.001 336.453C936.961 337.677 938.473 339.405 938.473 342.717C938.473 347.325 934.585 350.277 928.537 350.277C922.633 350.277 919.033 347.541 918.601 342.861H909.673C910.249 352.581 917.161 358.269 928.249 358.269C939.625 358.269 947.185 351.717 947.185 341.925C947.185 335.229 943.657 330.981 936.169 328.605L928.537 326.229C924.289 324.861 922.417 322.701 922.417 319.173C922.417 314.493 925.945 311.685 931.705 311.685C937.033 311.685 940.489 314.493 940.993 319.173H949.849C949.417 310.173 942.001 303.765 932.065 303.765C921.049 303.765 913.633 310.317 913.633 320.325ZM987.612 304.701H978.828L970.476 357.333H979.332L987.612 304.701ZM999.063 357.333L1004.97 319.677L1023.33 357.333H1032.11L1040.46 304.701H1031.61L1025.7 342.357L1007.34 304.701H998.559L990.207 357.333H999.063ZM1045.43 312.909H1060.55L1053.5 357.333H1062.28L1069.34 312.909H1084.38L1085.68 304.701H1046.73L1045.43 312.909ZM1115.71 357.333L1117.01 349.053H1093.82L1096.05 334.797H1116.79L1118.01 326.877H1097.35L1099.58 312.981H1122.69L1123.99 304.701H1092.02L1083.67 357.333H1115.71ZM1133.77 357.333L1136.87 337.533H1148.1L1154.36 357.333H1163.51L1156.6 335.733C1164.3 332.709 1168.76 326.661 1168.76 319.317C1168.76 310.389 1162.5 304.701 1152.64 304.701H1133.27L1124.92 357.333H1133.77ZM1140.83 312.693H1151.27C1156.45 312.693 1159.55 315.357 1159.55 320.037C1159.55 326.013 1155.44 329.685 1148.82 329.685H1138.16L1140.83 312.693ZM1203.04 335.733L1204.27 327.669H1184.97L1187.28 312.909H1210.32L1211.54 304.701H1179.79L1171.44 357.333H1180.29L1183.68 335.733H1203.04ZM1212.09 357.333L1218.28 345.021H1237.65L1239.88 357.333H1248.88L1238.58 304.701H1229.44L1202.44 357.333H1212.09ZM1230.88 319.821C1231.53 318.453 1232.17 316.869 1232.53 315.933C1232.53 316.941 1232.82 318.741 1233.04 319.821L1236.28 337.461H1222.02L1230.88 319.821ZM1274.73 358.197C1286.9 358.197 1295.54 351.861 1299.71 339.765H1289.99C1287.11 346.605 1282.14 349.485 1275.02 349.485C1266.74 349.485 1261.7 343.509 1261.7 334.509C1261.7 321.837 1268.9 312.477 1279.84 312.477C1286.46 312.477 1291.43 315.861 1292.37 322.341H1301.73C1301.22 311.397 1293.23 303.837 1280.85 303.837C1264.43 303.837 1252.34 316.797 1252.34 335.013C1252.34 348.621 1260.69 358.197 1274.73 358.197ZM1336.43 357.333L1337.72 349.053H1314.54L1316.77 334.797H1337.51L1338.73 326.877H1318.07L1320.3 312.981H1343.41L1344.71 304.701H1312.74L1304.39 357.333H1336.43Z" fill="white"/>
<path d="M91.1333 2.26665C90.6 3.59999 86.7333 15.2 82.6 28L75.1333 51.3333L260.467 51.7333C364.067 51.8667 446.467 52.5333 447.133 53.2C447.8 53.8667 440.867 77.2 431 107.467C421.4 136.8 411.667 166.667 409.4 174C407 181.333 404.333 188.667 403.267 190.267L401.4 193.333H245.4C127.533 193.333 89.4 192.933 89.4 191.733C89.4 190.533 121 92.9333 123.667 85.6C124.2 84.4 117.8 84 94.3333 84H64.4667L59.1333 100.267C56.2 109.333 45 143.467 34.2 176.133C23.5333 208.933 14.3333 237.6 13.9333 239.867L13 244L205.533 243.733L398.067 243.333L408.733 239.733C422.467 235.067 433.4 228.4 443.133 218.933C457.267 205.067 459 201.333 476.2 148.8C485 122.4 496.067 88.6667 500.867 74C509 49.4667 509.667 46.6667 509.133 38.5333C507.933 22.6667 498.333 9.99999 482.867 3.73332L475.4 0.666654L283.667 0.266654C101.4 -1.27256e-05 91.9333 -1.27256e-05 91.1333 2.26665Z" fill="white"/>
<path d="M616.866 5.60015C615.666 8.80015 611.8 20.2668 608.2 31.3335L601.8 51.3335L787.533 51.7335C963.4 52.0002 973.4 52.1335 973.4 54.4002C973.4 55.6002 970.466 65.3335 967 76.0002L960.6 95.3335L773.666 95.7335L586.866 96.0002L572.066 141.733C563.933 166.8 553.4 198.933 548.6 213.2C543.933 227.467 540.066 240.134 540.066 241.6C540.066 243.867 541.4 244 569.133 243.734L598.066 243.334L601.666 232.667C603.666 226.8 610.6 205.467 617.133 185.333L629 148.667L792.866 148C955.933 147.333 956.733 147.333 964.066 144.533C986.333 136 1003.13 122.933 1013 106.4C1019.27 96.1335 1033.4 50.8002 1033.4 41.2002C1033.4 25.2002 1024.47 11.6002 1009.13 4.53348L1000.73 0.666817L809.8 0.266817L619 0.000150044L616.866 5.60015Z" fill="white"/>
<path d="M1124.33 11.6C1122.2 18.1333 1116.73 34.4 1112.33 48C1095.27 100.533 1067.4 185.867 1059.4 210C1054.87 223.867 1050.6 237.333 1050.07 239.733L1049.13 244L1078.73 243.733L1108.47 243.333L1120.87 205.333C1149 118.933 1160.47 83.8667 1173.27 44.8C1180.6 22 1186.73 2.66665 1186.73 1.73332C1186.73 0.399987 1180.73 -1.27256e-05 1157.53 -1.27256e-05H1128.47L1124.33 11.6Z" fill="white"/>
</svg>
